<svg viewBox="0 0 837 655" fill="none" xmlns="http://www.w3.org/2000/svg"><g filter="url(#filter0_ii)"><path d="M177.238 620.492c-71.259-33.128-132.632-94.629-159.54-167.579-26.908-72.949-19.337-157.81 7.687-238.849 26.538-81.516 72.53-159.21 143.283-192.688C239.408-11.641 334.394.003 418.7 16.412c84.32 15.948 157.471 36.183 226.098 73.393 68.112 37.657 131.211 91.811 164.734 161.723 34.024 69.927 37.983 155.135-.963 215.468-38.946 60.332-121.314 96.237-194.936 125.005-73.623 28.769-139.015 50.848-212.026 59.288-72.51 8.454-153.626 2.777-224.369-30.797z" fill="#fff"/></g><defs><filter id="filter0_ii" x=".917" y="-3.725" filterUnits="userSpaceOnUse" color-interpolation-filters="sRGB"><feFlood flood-opacity="0" result="BackgroundImageFix"/><feBlend in="SourceGraphic" in2="BackgroundImageFix" result="shape"/><feColorMatrix in="SourceAlpha" values="0 0 0 0 0 0 0 0 0 0 0 0 0 0 0 0 0 0 127 0" result="hardAlpha"/><feOffset dy="4"/><feGaussianBlur stdDeviation="2"/><feComposite in2="hardAlpha" operator="arithmetic" k2="-1" k3="1"/><feColorMatrix values="0 0 0 0 0 0 0 0 0 0 0 0 0 0 0 0 0 0 0.5 0"/><feBlend in2="shape" result="effect1_innerShadow"/><feColorMatrix in="SourceAlpha" values="0 0 0 0 0 0 0 0 0 0 0 0 0 0 0 0 0 0 127 0" result="hardAlpha"/><feOffset dy="-4"/><feGaussianBlur stdDeviation="2"/><feComposite in2="hardAlpha" operator="arithmetic" k2="-1" k3="1"/><feColorMatrix values="0 0 0 0 0 0 0 0 0 0 0 0 0 0 0 0 0 0 0.5 0"/><feBlend in2="effect1_innerShadow" result="effect2_innerShadow"/></filter></defs></svg>