<svg viewBox="0 0 918 682" fill="none" xmlns="http://www.w3.org/2000/svg"><g filter="url(#filter0_ii)"><path fill-rule="evenodd" clip-rule="evenodd" d="M874.37 350.388c28.278-51.314 52.866-95.931 38.593-128.659-14.772-35.236-74.613-56.683-136.555-78.883-30.627-10.978-61.769-22.139-88.231-35.243-38.298-18.965-66.795-41.793-91.386-61.493-26.763-21.439-48.9-39.173-74.011-44.19-24.132-4.821-51.125 2.213-82.343 10.347-31.117 8.109-66.433 17.311-107.299 16.959-30.861-.264-65.023-6.164-98.972-12.028C179.039 7.678 124.47-1.747 85.494 13.21 22.516 37.378-.204 125.646.451 206.19c.391 49.596 9.452 96.327 18.737 144.218 5.961 30.748 12.016 61.974 15.927 94.743 2.148 17.122 3.705 34.669 5.246 52.03 5.96 67.172 11.672 131.554 50.412 157.698 45.479 31.534 136.115 9.947 209.308-7.487 5.248-1.25 10.407-2.478 15.452-3.664 75.87-18.171 126.109-27.306 205.935-8.732 20.261 4.803 42.351 11.371 64.839 18.057 66.597 19.801 136.684 40.639 173.102 19.746 29.175-16.629 35.679-60.557 43.469-113.159 5.096-34.411 10.741-72.535 23.643-109.157 12.014-35.069 30.617-68.826 47.849-100.096z" fill="#fff"/></g><defs><filter id="filter0_ii" x=".438" y="-3.656" width="916.708" height="689.149" filterUnits="userSpaceOnUse" color-interpolation-filters="sRGB"><feFlood flood-opacity="0" result="BackgroundImageFix"/><feBlend in="SourceGraphic" in2="BackgroundImageFix" result="shape"/><feColorMatrix in="SourceAlpha" values="0 0 0 0 0 0 0 0 0 0 0 0 0 0 0 0 0 0 127 0" result="hardAlpha"/><feOffset dy="-4"/><feGaussianBlur stdDeviation="2"/><feComposite in2="hardAlpha" operator="arithmetic" k2="-1" k3="1"/><feColorMatrix values="0 0 0 0 0 0 0 0 0 0 0 0 0 0 0 0 0 0 0.5 0"/><feBlend in2="shape" result="effect1_innerShadow"/><feColorMatrix in="SourceAlpha" values="0 0 0 0 0 0 0 0 0 0 0 0 0 0 0 0 0 0 127 0" result="hardAlpha"/><feOffset dy="4"/><feGaussianBlur stdDeviation="2"/><feComposite in2="hardAlpha" operator="arithmetic" k2="-1" k3="1"/><feColorMatrix values="0 0 0 0 0 0 0 0 0 0 0 0 0 0 0 0 0 0 0.5 0"/><feBlend in2="effect1_innerShadow" result="effect2_innerShadow"/></filter></defs></svg>