<svg viewBox="0 0 743 600" fill="none" xmlns="http://www.w3.org/2000/svg"><g filter="url(#filter0_ii)"><path d="M655.754 357.607c-28.073 55.183-28.117 114.029-55.923 160.444-28.276 46.507-84.209 80.997-142.258 81.471-57.682-.034-116.332-33.437-185.123-48.292-68.686-14.44-147.044-10.424-189.2-40.956-41.686-30.625-47.64-95.705-60.227-157.743C10.332 290.078-8.991 230.666 5.56 178.567c14.55-52.099 62.975-96.886 117.443-125.424C177.94 24.514 239.39 12.043 298.435 5.708c59.411-6.842 117.355-7.732 174.613 2.41 57.727 10.048 114.768 31.128 168.614 65.036 53.743 33.493 103.822 79.906 100.81 128.874-3.012 48.967-58.645 100.396-86.718 155.58z" fill="#fff"/></g><defs><filter id="filter0_ii" x=".365" y="-3.47" width="742.237" height="606.992" filterUnits="userSpaceOnUse" color-interpolation-filters="sRGB"><feFlood flood-opacity="0" result="BackgroundImageFix"/><feBlend in="SourceGraphic" in2="BackgroundImageFix" result="shape"/><feColorMatrix in="SourceAlpha" values="0 0 0 0 0 0 0 0 0 0 0 0 0 0 0 0 0 0 127 0" result="hardAlpha"/><feOffset dy="-4"/><feGaussianBlur stdDeviation="2"/><feComposite in2="hardAlpha" operator="arithmetic" k2="-1" k3="1"/><feColorMatrix values="0 0 0 0 0 0 0 0 0 0 0 0 0 0 0 0 0 0 0.5 0"/><feBlend in2="shape" result="effect1_innerShadow"/><feColorMatrix in="SourceAlpha" values="0 0 0 0 0 0 0 0 0 0 0 0 0 0 0 0 0 0 127 0" result="hardAlpha"/><feOffset dy="4"/><feGaussianBlur stdDeviation="2"/><feComposite in2="hardAlpha" operator="arithmetic" k2="-1" k3="1"/><feColorMatrix values="0 0 0 0 0 0 0 0 0 0 0 0 0 0 0 0 0 0 0.5 0"/><feBlend in2="effect1_innerShadow" result="effect2_innerShadow"/></filter></defs></svg>