<svg width="80" height="81" viewBox="0 0 80 81" xmlns="http://www.w3.org/2000/svg">
<path d="M79.5 40.2773C79.5 60.1816 64.9149 76.6227 45.9133 79.4943V51.4319H55.7667H56.1957L56.2609 51.0079L57.8842 40.4404L57.9727 39.8645H57.39H45.9133V34.5882C45.9133 32.434 46.2657 30.4622 47.0719 29.0468C47.8595 27.6644 49.0804 26.8024 50.9267 26.8024H57.4933H57.9933V26.3024V17.0785V16.6408L57.5596 16.5829C57.5276 16.5786 57.4946 16.5742 57.4607 16.5696C56.2568 16.4082 53.8026 16.0792 49.29 16.0792C44.3919 16.0792 40.4228 17.3804 37.6837 20.2437C34.9484 23.1031 33.52 27.4369 33.52 33.3317V39.8645H24.1233H23.6233V40.3645V50.9319V51.4319H24.1233H33.52V79.402C14.7964 76.2889 0.5 59.9828 0.5 40.2773C0.5 18.3473 18.1886 0.571289 40 0.571289C61.8114 0.571289 79.5 18.3473 79.5 40.2773Z" fill="#c52431" stroke="black"/>
</svg>
