<svg enable-background="new 0 0 361.153 150.354" height="150.354" viewBox="0 0 361.153 150.354" width="361.153" xmlns="http://www.w3.org/2000/svg"><path d="m155.185 130.28v2.962c0 .847.062 1.384.185 1.611.123.228.421.341.894.341l.41-.014.601-.014h1.161c.901 0 1.597-.495 2.089-1.487l.314-.669c.082-.164.218-.251.409-.26.2-.009.301.114.301.369 0 .073-.014.274-.041.603-.019.237-.027.438-.027.602 0 .292.041.977.123 2.053.055.702.082 1.313.082 1.833l.014.697c0 .128-.014.215-.041.26-.036.056-.109.087-.218.097-.228.018-.369-.155-.423-.52-.118-.773-.392-1.36-.819-1.761-.237-.219-.526-.359-.867-.424-.341-.063-.981-.095-1.918-.095h-.929c-.437 0-.735.065-.894.197s-.266.397-.321.797c-.055.455-.082 1.173-.082 2.154v1.227c0 1.281.1 2.203.3 2.767.155.409.337.686.546.831.209.146.532.219.969.219 3.695 0 6.111-1.124 7.25-3.372.063-.109.118-.169.164-.178.091-.019.175.012.252.089.078.078.116.176.116.294 0 .895-.241 1.762-.724 2.602-.4.712-.901 1.221-1.501 1.526-.601.306-1.397.459-2.389.459-.583 0-1.229-.037-1.939-.109l-1.583-.15c-.583-.055-1.37-.082-2.362-.082-.665 0-1.675.041-3.031.123-.374.027-.642.041-.806.041-.218 0-.337-.103-.355-.307-.009-.167.091-.293.3-.376.519-.2.872-.411 1.058-.634s.334-.62.444-1.193c.1-.481.15-1.136.15-1.962v-10.81c0-1.019-.166-1.709-.498-2.072-.333-.363-1.022-.618-2.068-.764-.246-.037-.369-.171-.369-.403 0-.213.15-.32.45-.32.064 0 .2.01.41.027.164.01.387.014.669.014l1.379.055 5.174.055c2.977 0 4.81-.041 5.502-.123.073-.009.137-.014.191-.014.264 0 .396.15.396.451 0 .209.027.582.082 1.119.073.792.109 1.36.109 1.707 0 .691-.178 1.046-.532 1.064-.173.009-.26-.192-.26-.604 0-.904-.33-1.561-.99-1.967-.66-.407-1.727-.61-3.202-.61h-1.666l-.928.108c-.464.146-.696.605-.696 1.379z"/><path d="m169.658 137.183 1.875 4.197c.237.527.429.795.575.804.237.019.78-.828 1.628-2.541.848-1.712 1.272-2.818 1.272-3.318 0-.781-.469-1.203-1.406-1.267-.228-.01-.341-.116-.341-.321 0-.195.128-.293.384-.293l.726.04.835.027 1.137.068.589-.055c.21-.036.356-.054.438-.054.164 0 .247.093.247.278 0 .204-.119.343-.355.417-.346.101-.642.405-.888.914l-.628 1.254-1.215 2.482c-2.021 4.136-3.207 6.204-3.557 6.204-.185 0-.351-.159-.498-.478l-.137-.327-3.413-7.5-.246-.49-.546-1.146c-.255-.519-.514-.827-.778-.927-.355-.14-.537-.274-.546-.404-.018-.186.082-.287.3-.306l.123.014c.827.108 1.494.163 2.002.163.354 0 .958-.031 1.812-.096.518-.045.89-.067 1.117-.067.363 0 .588.016.674.047.086.032.129.118.129.257 0 .179-.127.291-.382.338-.874.146-1.311.44-1.311.886 0 .238.128.637.384 1.2z"/><path d="m182.872 134.239c1.411 0 2.625.555 3.645 1.665.855.938 1.283 1.876 1.283 2.812 0 .355-.245.533-.736.533l-.626-.027h-.314l-.831.014-2.576.041-1.349.013-.463-.013c-.264 0-.432.031-.504.096-.1.091-.15.26-.15.506 0 1.205.393 2.271 1.179 3.196.786.927 1.692 1.39 2.719 1.39 1.153 0 2.076-.335 2.766-1.006l.436-.427c.073-.073.15-.11.232-.11.2 0 .3.096.3.287 0 .264-.351.705-1.051 1.324-1.238 1.092-2.566 1.638-3.986 1.638-1.575 0-2.858-.541-3.85-1.624s-1.488-2.48-1.488-4.191c0-1.656.53-3.09 1.591-4.301 1.059-1.211 2.317-1.816 3.773-1.816zm-.381.696c-.616 0-1.154.303-1.616.908-.461.604-.692 1.318-.692 2.141 0 .262.065.42.197.474.131.055.486.082 1.065.082.299 0 .615-.01.95-.027.814-.036 1.286-.055 1.412-.055.796 0 1.195-.244 1.195-.731 0-.731-.256-1.38-.767-1.944-.512-.566-1.093-.848-1.744-.848z"/><path d="m201.999 140.04v2.764c0 .591.032.992.095 1.205.064.214.209.416.437.606.328.264.746.422 1.256.477.282.036.423.146.423.328 0 .272-.324.409-.971.409-.137 0-.333-.018-.588-.052l-.889-.103c-.402-.043-.716-.064-.944-.064-.867 0-1.56.054-2.08.16-.21.039-.393.059-.547.059-.201 0-.301-.1-.301-.301 0-.146.104-.259.314-.341.4-.137.669-.351.805-.642.137-.291.205-.783.205-1.475v-3.222c0-1.238-.247-2.219-.74-2.942-.494-.724-1.166-1.085-2.017-1.085-.761 0-1.374.209-1.84.627s-.7.963-.7 1.636v4.553c0 .837.157 1.448.471 1.834.314.387.844.611 1.59.675.255.027.382.132.382.313 0 .256-.16.383-.479.383-.301 0-.661-.022-1.081-.068-1.031-.127-1.742-.191-2.134-.191-.529 0-1.14.049-1.833.146-.329.048-.552.072-.67.072-.228 0-.342-.096-.342-.287 0-.127.077-.223.232-.286.464-.173.76-.362.887-.566.127-.205.191-.58.191-1.127l.014-.45v-4.806l-.014-.532c0-.655-.066-1.108-.198-1.358-.132-.251-.375-.376-.73-.376h-.628c-.091 0-.159-.027-.205-.082-.046-.045-.068-.113-.068-.204 0-.173.068-.294.205-.362s.539-.185 1.206-.348c1.141-.264 2.095-.66 2.862-1.188.064-.054.123-.081.178-.081.109-.01.164.077.164.259l-.041.683-.014.778.083.519c.036.109.096.169.178.178.072.009.218-.113.436-.368.836-1.02 1.939-1.529 3.312-1.529 1.48 0 2.539.447 3.175 1.341.635.892.953 2.37.953 4.431z"/><path d="m209.508 135.972v6.663c0 .81.121 1.374.362 1.692s.667.478 1.276.478c.237 0 .553-.062.949-.185s.671-.247.826-.37c.1-.076.173-.114.218-.114.109 0 .178.094.205.279l.027.14-.165.236c-1.003.92-2.166 1.379-3.488 1.379-1.021 0-1.772-.231-2.25-.694-.479-.464-.718-1.182-.718-2.154v-7.35h-.833c-.437 0-.655-.12-.655-.36 0-.148.114-.301.343-.458.393-.265.955-.77 1.686-1.516.73-.746 1.22-1.315 1.466-1.707.282-.445.492-.664.628-.655.073.01.114.077.123.205v3.167h1.979c.355 0 .614-.059.778-.177l.355-.232c.073-.055.155-.087.246-.096.155-.009.228.064.219.22-.009.083-.041.184-.096.303-.055.11-.109.312-.164.605-.1.468-.35.701-.75.701z"/><path d="m220.444 134.266c1.72 0 3.14.545 4.259 1.636 1.12 1.092 1.68 2.478 1.68 4.16 0 1.736-.608 3.188-1.823 4.356s-2.729 1.752-4.54 1.752c-1.702 0-3.12-.54-4.253-1.622s-1.7-2.441-1.7-4.077c0-1.719.622-3.183 1.864-4.392s2.747-1.813 4.513-1.813zm-.708.751c-.879 0-1.578.371-2.094 1.115-.517.743-.775 1.745-.775 3.005 0 1.723.399 3.2 1.197 4.434.798 1.232 1.759 1.85 2.883 1.85.852 0 1.548-.352 2.087-1.055.539-.702.809-1.606.809-2.713 0-1.85-.399-3.417-1.197-4.705s-1.768-1.931-2.91-1.931z"/><path d="m232.471 134.266c.619 0 1.297.104 2.034.313.373.109.573.287.601.533l.027.601.068.859.027.465c.018.063.027.118.027.164 0 .173-.097.259-.29.259-.148 0-.388-.299-.72-.896-.645-1.159-1.456-1.738-2.436-1.738-.49 0-.912.153-1.266.461s-.531.669-.531 1.085c0 .759.532 1.36 1.597 1.803l.942.382c.801.337 1.347.599 1.638.784.291.187.569.453.833.799.446.591.669 1.319.669 2.184 0 1.073-.359 1.983-1.078 2.729s-1.598 1.118-2.635 1.118c-.564 0-1.251-.095-2.062-.286l-.942-.232-.614-.096c-.2-.036-.3-.163-.3-.382 0-.073.004-.187.014-.342.018-.154.027-.332.027-.532l-.041-1.488-.014-.669c0-.209.021-.339.062-.389s.147-.075.321-.075c.146 0 .246.122.3.367.109.571.41 1.257.901 2.055.592.943 1.37 1.414 2.334 1.414.546 0 1.001-.169 1.365-.509.364-.339.546-.767.546-1.282 0-.57-.175-1.022-.526-1.357-.351-.334-1.017-.696-2-1.085-1.174-.455-1.989-.939-2.444-1.454-.455-.514-.683-1.208-.683-2.081 0-1.064.382-1.911 1.147-2.539s1.801-.943 3.102-.943z"/><path d="m128.52 127.016c.683 0 1.488.169 2.417.506.719.255 1.156.382 1.311.382.136 0 .259-.036.368-.109l.301-.204c.063-.046.136-.068.218-.068.218 0 .328.214.328.642 0 .109-.005.259-.014.45-.027.409-.041.646-.041.71 0 .246.05.708.15 1.386s.182 1.099.246 1.263c.036.109.055.191.055.246 0 .2-.119.3-.355.3-.237 0-.415-.213-.533-.64-.317-1.152-.892-2.109-1.723-2.872s-1.714-1.144-2.65-1.144c-.581 0-1.074.182-1.478.546-.404.363-.606.805-.606 1.322 0 .9.47 2.049 1.411 3.444.94 1.396 2.251 2.889 3.933 4.48 2.472 2.336 3.922 3.491 4.349 3.464.27-.019.54-.336.81-.953s.405-1.217.405-1.798c0-.862-.166-1.479-.498-1.852-.333-.372-.913-.59-1.741-.654-.683-.064-1.024-.217-1.024-.458 0-.213.123-.319.37-.319.146 0 .306.004.479.014.958.063 1.729.095 2.313.095.693 0 1.149-.018 1.369-.054l.547-.096c.1-.019.196-.027.287-.027.283 0 .424.125.424.375 0 .167-.104.288-.314.362-.328.108-.53.225-.607.347-.078.123-.116.38-.116.77 0 .8-.246 1.758-.737 2.874-.482 1.1-.719 1.73-.71 1.894.027.531.589 1.116 1.686 1.757 1.097.64 2.087.96 2.97.96.41 0 .755-.036 1.038-.109l.778-.218c.082-.019.154-.027.218-.027.228 0 .336.086.328.257-.027.308-.54.642-1.536 1.003s-1.904.542-2.724.542c-1.329 0-2.808-.392-4.437-1.174-.264-.128-.459-.191-.587-.191-.146 0-.341.055-.587.164l-1.229.546c-1.401.609-2.999.915-4.792.915-2.348 0-4.252-.607-5.713-1.823-1.461-1.215-2.191-2.801-2.191-4.758 0-1.146.296-2.193.888-3.14.591-.946 1.383-1.647 2.375-2.103.418-.191.628-.387.628-.587 0-.101-.041-.241-.123-.424-.246-.582-.369-1.26-.369-2.034 0-1.192.423-2.187 1.27-2.982.845-.8 1.9-1.198 3.165-1.198zm-3.672 7.522c-.22-.018-.604.206-1.155.67-.614.502-.902 1.107-.866 1.818.055 1.212.656 2.565 1.804 4.061.848 1.112 1.857 1.98 3.028 2.604s2.376.937 3.615.937c.738 0 1.376-.104 1.914-.312.538-.207.806-.449.806-.727 0-.218-.236-.486-.709-.806-1.575-1.056-3.09-2.291-4.546-3.706-1.457-1.415-2.48-2.642-3.072-3.68-.318-.553-.591-.84-.819-.859z"/><path d="m10.028 126.49c1.702 0 3.186.364 4.451 1.092l.901.519c.182.109.346.164.492.164.182 0 .318-.072.41-.219l.287-.423c.045-.072.127-.109.246-.109.282 0 .423.296.423.888l.014.996v1.243l.109 1.037.123.614c.055.301.082.569.082.806 0 .346-.128.519-.382.519-.146 0-.241-.108-.287-.327-.073-.345-.326-.874-.758-1.587s-.845-1.277-1.237-1.695c-1.585-1.708-3.348-2.562-5.289-2.562-1.722 0-3.121.707-4.196 2.12s-1.612 3.246-1.612 5.499c0 2.944.879 5.293 2.638 7.047 1.321 1.309 2.76 1.963 4.318 1.963.92 0 1.895-.22 2.924-.659 1.03-.44 1.841-.986 2.433-1.639l.888-.966c.127-.146.25-.222.369-.231.173-.009.259.091.259.301 0 .373-.359.969-1.079 1.788-1.884 2.13-4.209 3.194-6.976 3.194-2.676 0-4.849-.854-6.519-2.566-1.67-1.711-2.505-3.937-2.505-6.676 0-1.502.314-2.972.942-4.41s1.465-2.607 2.512-3.509c1.719-1.475 3.726-2.212 6.019-2.212z"/><path d="m25.62 133.957c1.72 0 3.14.545 4.259 1.636 1.12 1.092 1.68 2.478 1.68 4.16 0 1.736-.608 3.188-1.823 4.356s-2.729 1.752-4.54 1.752c-1.702 0-3.12-.54-4.253-1.622s-1.7-2.441-1.7-4.077c0-1.719.622-3.183 1.864-4.392s2.746-1.813 4.513-1.813zm-.708.751c-.879 0-1.578.371-2.094 1.115-.517.743-.775 1.745-.775 3.005 0 1.723.399 3.2 1.197 4.434.798 1.232 1.759 1.85 2.883 1.85.852 0 1.548-.352 2.087-1.055.539-.702.809-1.606.809-2.713 0-1.85-.399-3.417-1.197-4.705-.798-1.287-1.768-1.931-2.91-1.931z"/><path d="m45.894 139.732v2.764c0 .591.032.992.095 1.205.064.214.209.416.437.606.328.264.746.422 1.256.477.282.036.423.146.423.328 0 .272-.324.409-.971.409-.137 0-.333-.018-.588-.052l-.889-.103c-.402-.043-.716-.064-.944-.064-.867 0-1.56.054-2.08.16-.21.039-.393.059-.547.059-.201 0-.301-.1-.301-.301 0-.146.104-.259.314-.341.4-.137.669-.351.805-.642.137-.291.205-.783.205-1.475v-3.222c0-1.238-.247-2.219-.74-2.942-.494-.724-1.166-1.085-2.017-1.085-.761 0-1.374.209-1.84.627s-.7.963-.7 1.636v4.553c0 .837.157 1.448.471 1.834.314.387.844.611 1.59.675.255.027.382.132.382.313 0 .256-.16.383-.479.383-.301 0-.661-.022-1.081-.068-1.031-.127-1.742-.191-2.134-.191-.529 0-1.14.049-1.833.146-.329.048-.552.072-.67.072-.228 0-.342-.096-.342-.287 0-.127.077-.223.232-.286.464-.173.76-.362.887-.566.127-.205.191-.58.191-1.127l.014-.45v-4.806l-.014-.532c0-.655-.066-1.108-.198-1.358-.132-.251-.375-.376-.73-.376h-.628c-.091 0-.159-.027-.205-.082-.046-.045-.068-.113-.068-.204 0-.173.068-.294.205-.362s.539-.185 1.206-.348c1.141-.264 2.095-.66 2.862-1.188.064-.054.123-.081.178-.081.109-.01.164.077.164.259l-.041.683-.014.778.083.519c.036.109.096.169.178.178.072.009.218-.113.436-.368.836-1.02 1.939-1.529 3.312-1.529 1.48 0 2.539.447 3.175 1.341.634.892.953 2.369.953 4.431z"/><path d="m57.662 135.073c.654-.072 1.145-.238 1.467-.497.324-.259.521-.643.594-1.151.02-.182.109-.272.273-.272.154 0 .232.118.232.354 0 .228-.055.713-.164 1.457-.072.508-.113.839-.123.993-.018.209-.082.363-.191.463s-.395.259-.859.477c.01.191.023.332.041.423.045.437.068.705.068.805 0 .992-.471 1.824-1.414 2.498-.941.673-2.104 1.01-3.488 1.01-.428 0-.887-.046-1.379-.137-.182-.036-.34-.055-.477-.055-.288 0-.528.112-.721.335s-.29.498-.29.825c0 .783.684 1.175 2.052 1.175 2.654 0 4.416.166 5.285.499.871.333 1.305 1.01 1.305 2.031 0 1.131-.49 2.089-1.471 2.873s-2.441 1.177-4.385 1.177c-1.689 0-2.978-.203-3.868-.609s-1.334-.993-1.334-1.76c0-.393.141-.763.423-1.109.282-.348.613-.558.995-.63.427-.092.645-.174.654-.247l-.109-.177-.409-.41c-.408-.428-.612-.919-.612-1.475 0-.791.309-1.474.928-2.047l.437-.409c.082-.082.123-.169.123-.26 0-.127-.187-.305-.56-.531-.401-.228-.753-.632-1.058-1.213-.305-.582-.458-1.132-.458-1.649 0-1.117.459-2.042 1.379-2.773s2.09-1.097 3.51-1.097c1.366-.003 2.567.369 3.604 1.113zm-5.508 11.185c-.348 0-.639.125-.873.375-.234.251-.351.558-.351.922 0 .674.318 1.208.956 1.604.637.396 1.506.594 2.607.594.965 0 1.744-.171 2.336-.512.59-.342.887-.795.887-1.358 0-.474-.182-.79-.545-.949s-1.209-.289-2.535-.39c-.783-.054-1.383-.118-1.801-.19l-.354-.068c-.118-.019-.226-.028-.327-.028zm1.905-11.714c-.697 0-1.248.271-1.65.814-.402.542-.603 1.284-.603 2.225 0 1.013.216 1.85.652 2.51.434.66.977.99 1.627.99.67 0 1.209-.269 1.615-.807.408-.538.611-1.246.611-2.123 0-2.406-.752-3.609-2.252-3.609z"/><path d="m65.771 138.623v3.83c0 1.436.674 2.244 2.021 2.426.282.037.424.148.424.334 0 .232-.105.349-.315.349-.1 0-.228-.014-.383-.041-.912-.137-1.852-.205-2.818-.205-.511 0-.971.019-1.382.055l-.848.082c-.155.019-.314.027-.479.027-.256 0-.384-.12-.384-.362 0-.167.114-.278.342-.334.719-.172 1.078-.849 1.078-2.028l-.014-.571v-4.873c0-.653-.084-1.087-.252-1.3-.169-.214-.53-.343-1.086-.389-.209-.019-.313-.116-.313-.293 0-.204.123-.325.37-.362 1.251-.19 2.32-.541 3.206-1.051l.533-.314c.072-.045.141-.068.204-.068.137 0 .205.101.205.301 0 .063-.005.196-.014.396l-.041.765-.055.847.014.15c.036.127.104.195.203.205.09.009.288-.21.595-.656.244-.346.62-.716 1.13-1.112s.859-.594 1.049-.594c.312 0 .775.236 1.394.71s.932.828.94 1.064c0 .082-.146.401-.44.956-.377.701-.708 1.051-.992 1.051-.118 0-.227-.045-.326-.136l-.379-.342c-.461-.428-.99-.642-1.587-.642-1.066-.002-1.6.707-1.6 2.125z"/><path d="m77.158 133.93c1.41 0 2.626.555 3.646 1.665.855.938 1.283 1.876 1.283 2.812 0 .355-.245.533-.736.533l-.627-.027h-.314l-.831.014-2.575.041-1.35.013-.464-.013c-.263 0-.431.031-.504.096-.1.091-.149.26-.149.506 0 1.205.393 2.271 1.179 3.196.785.927 1.691 1.39 2.718 1.39 1.154 0 2.076-.335 2.767-1.006l.436-.427c.073-.073.15-.11.232-.11.2 0 .301.096.301.287 0 .264-.351.705-1.052 1.324-1.237 1.092-2.566 1.638-3.986 1.638-1.575 0-2.858-.541-3.85-1.624s-1.488-2.48-1.488-4.191c0-1.656.53-3.09 1.59-4.301 1.059-1.21 2.318-1.816 3.774-1.816zm-.382.696c-.615 0-1.154.303-1.615.908-.462.604-.692 1.318-.692 2.141 0 .262.065.42.196.474.132.055.486.082 1.066.082.298 0 .615-.01.95-.027.814-.036 1.285-.055 1.412-.055.796 0 1.194-.244 1.194-.731 0-.731-.256-1.38-.768-1.944-.509-.565-1.091-.848-1.743-.848z"/><path d="m88.038 133.957c.619 0 1.298.104 2.034.313.373.109.574.287.602.533l.027.601.067.859.027.465c.019.063.027.118.027.164 0 .173-.097.259-.29.259-.147 0-.388-.299-.72-.896-.645-1.159-1.456-1.738-2.437-1.738-.489 0-.911.153-1.266.461-.354.308-.53.669-.53 1.085 0 .759.532 1.36 1.598 1.803l.941.382c.801.337 1.348.599 1.639.784.291.187.568.453.833.799.445.591.669 1.319.669 2.184 0 1.073-.36 1.983-1.079 2.729s-1.597 1.118-2.635 1.118c-.564 0-1.251-.095-2.062-.286l-.942-.232-.614-.096c-.2-.036-.3-.163-.3-.382 0-.073.004-.187.014-.342.018-.154.027-.332.027-.532l-.041-1.488-.014-.669c0-.209.021-.339.062-.389s.147-.075.32-.075c.146 0 .246.122.301.367.109.571.409 1.257.901 2.055.591.943 1.369 1.414 2.334 1.414.546 0 1.001-.169 1.365-.509.364-.339.546-.767.546-1.282 0-.57-.175-1.022-.525-1.357-.351-.334-1.017-.696-2-1.085-1.174-.455-1.988-.939-2.443-1.454-.456-.514-.683-1.208-.683-2.081 0-1.064.382-1.911 1.146-2.539s1.799-.943 3.101-.943z"/><path d="m99.411 133.957c1.721 0 3.141.545 4.26 1.636 1.12 1.092 1.68 2.478 1.68 4.16 0 1.736-.607 3.188-1.823 4.356-1.215 1.168-2.728 1.752-4.539 1.752-1.702 0-3.119-.54-4.253-1.622-1.133-1.082-1.699-2.441-1.699-4.077 0-1.719.621-3.183 1.863-4.392s2.745-1.813 4.511-1.813zm-.707.751c-.88 0-1.578.371-2.095 1.115-.517.743-.774 1.745-.774 3.005 0 1.723.398 3.2 1.196 4.434.798 1.232 1.759 1.85 2.883 1.85.853 0 1.548-.352 2.088-1.055.539-.702.809-1.606.809-2.713 0-1.85-.398-3.417-1.196-4.705-.799-1.287-1.768-1.931-2.911-1.931z"/><path d="m111.438 133.957c.619 0 1.298.104 2.034.313.373.109.574.287.602.533l.027.601.067.859.027.465c.019.063.027.118.027.164 0 .173-.097.259-.29.259-.147 0-.388-.299-.72-.896-.645-1.159-1.456-1.738-2.437-1.738-.489 0-.911.153-1.266.461-.354.308-.53.669-.53 1.085 0 .759.532 1.36 1.598 1.803l.941.382c.801.337 1.348.599 1.639.784.291.187.568.453.833.799.445.591.669 1.319.669 2.184 0 1.073-.36 1.983-1.079 2.729s-1.597 1.118-2.635 1.118c-.564 0-1.251-.095-2.062-.286l-.942-.232-.614-.096c-.2-.036-.3-.163-.3-.382 0-.073.004-.187.014-.342.018-.154.027-.332.027-.532l-.041-1.488-.014-.669c0-.209.021-.339.062-.389s.147-.075.32-.075c.146 0 .246.122.301.367.109.571.409 1.257.901 2.055.591.943 1.369 1.414 2.334 1.414.546 0 1.001-.169 1.365-.509.364-.339.546-.767.546-1.282 0-.57-.175-1.022-.525-1.357-.351-.334-1.017-.696-2-1.085-1.174-.455-1.988-.939-2.443-1.454-.456-.514-.683-1.208-.683-2.081 0-1.064.382-1.911 1.146-2.539s1.8-.943 3.101-.943z"/><g clip-rule="evenodd" fill-rule="evenodd"><path d="m216.482 107.798c-6.459 3.237-12.187 4.856-17.185 4.856-3.166 0-5.278-.828-6.337-2.488-1.073-1.578-1.288-4.264-.649-8.053.693-4.107 2.546-10.504 5.561-19.192 3.027-8.765 4.862-15.044 5.501-18.833.373-2.213.349-3.753-.067-4.622-.158-.316-2.821-.79-7.994-1.42 6.605-2.45 11.95-3.674 16.033-3.674 4.011 0 5.76 1.54 5.24 4.619-.359 2.134-2.138 7.465-5.338 15.993-3.185 8.449-5.29 15.717-6.315 21.797l-.12.709c-.625 3.715-.546 6.359.245 7.939.788 1.578 2.522 2.368 5.195 2.368 1.618 0 3.242-.235 4.87-.709z"/><path d="m266.659 75.222c-1.945 11.53-7.486 20.81-16.625 27.839-7.52 5.765-15.324 8.646-23.421 8.646-6.263 0-12.11-1.604-13.521-7.462-.185-.759-.235-1.204-.283-1.986-.074-1.212.191-3.105.191-3.105l.139-.831c1.799-10.659 7.288-21.915 16.465-33.762 3.327-4.265 6.246-7.187 8.763-8.765 2.831-1.739 6.461-2.606 10.894-2.606 14.078-.001 19.876 7.344 17.398 22.032zm-10.993.71c1.851-10.978-1.89-17.176-11.222-18.598-10.357 12.161-16.669 24.956-18.933 38.382-1.253 7.422 1.676 11.136 8.784 11.136 2.886 0 5.278-1.027 7.172-3.079 7.733-8.295 12.465-17.574 14.199-27.841z"/><path d="m314.296 100.69c-8.722 4.976-16.764 9.043-24.126 12.199l-2.531-1.894c8.077-16.584 13.001-30.127 14.773-40.63.747-4.423-.184-6.634-2.787-6.634-2.112 0-4.914 2.014-8.41 6.042-3.494 4.028-7.117 9.635-10.863 16.821-3.674 7.187-6.15 14.57-7.429 22.152l-.381 2.248-1.949 1.54-8.662-2.486c3.127-13.109 7.608-29.457 13.447-49.044l-.625-1.303-7.838-.474 21.881-8.291 1.154 1.3-8.25 25.117.364.354c9.631-15.794 19.304-23.692 29.018-23.692 4.435 0 6.126 3.119 5.072 9.359-1.226 7.263-5.917 20.691-14.077 40.276l12.046-3.197z"/><path d="m361.153 54.254-5.24 17.296c.173-9.795-2.519-14.69-8.08-14.69-2.816 0-5.216.869-7.199 2.606-1.983 1.739-3.226 4.107-3.731 7.108-.866 5.135.608 9.321 4.426 12.559 3.889 3.237 6.184 5.29 6.883 6.159 1.709 2.371 2.246 5.45 1.609 9.239-.881 5.211-3.664 9.397-8.348 12.558-4.617 3.156-10.619 4.737-18.009 4.737-6.475 0-10.115-.555-10.911-1.66.021-.55.119-1.34.292-2.368.467-2.764 1.765-6.909 3.891-12.436-.137.393-.271.986-.404 1.777-1.159 6.871 2.237 10.305 10.192 10.305 2.888 0 5.326-.908 7.323-2.725 1.995-1.815 3.253-4.263 3.772-7.343.68-4.03-.896-7.62-4.727-10.781-3.832-3.161-6.224-5.45-7.182-6.871-1.744-2.608-2.3-5.766-1.674-9.476.893-5.293 3.506-9.517 7.838-12.676 4.418-3.24 9.936-4.857 16.553-4.857 4.644 0 8.62.433 11.922 1.303l-.949 2.488 1.602-2.606z"/><path d="m194.904 36.789 22.378-36.789h11.727l-22.379 36.789h9.043l-2.993 4.969h-9.158l-27.048 44.441c-5.027 8.324-8.458 14.367-10.293 18.127-1.753 3.671-2.627 6.713-2.632 9.128 0 3.404 1.197 5.104 3.59 5.104 3.269 0 7.656-3.491 13.164-10.473 5.901-7.696 12.762-17.946 20.584-30.746l.599-1.076 3.589 2.822-.599.938c-10.932 17.992-19.108 30.077-24.532 36.253-5.348 6.177-10.334 9.263-14.958 9.263-2.79 0-5.022-1.117-6.703-3.357-1.753-2.235-2.63-5.144-2.632-8.728 0-4.564 1.159-9.62 3.47-15.171 2.237-5.64 6.186-13.067 11.85-22.289l20.821-34.237h-8.257l2.993-4.969h8.376z" fill="#ed1c24"/><path d="m48.6 54.254-5.24 17.296c.172-9.795-2.519-14.69-8.083-14.69-2.814 0-5.213.869-7.196 2.606-1.983 1.739-3.228 4.107-3.731 7.108-.867 5.135.608 9.321 4.426 12.559 3.889 3.237 6.183 5.29 6.882 6.159 1.71 2.371 2.247 5.45 1.607 9.239-.879 5.211-3.662 9.397-8.348 12.558-4.615 3.156-10.616 4.737-18.007 4.737-6.478 0-10.116-.555-10.911-1.66.019-.55.12-1.34.292-2.368.465-2.764 1.765-6.909 3.889-12.436-.134.393-.268.986-.402 1.777-1.159 6.871 2.237 10.305 10.192 10.305 2.886 0 5.326-.908 7.321-2.725 1.997-1.815 3.255-4.263 3.772-7.343.68-4.03-.896-7.62-4.725-10.781-3.832-3.161-6.227-5.45-7.182-6.871-1.743-2.608-2.301-5.766-1.676-9.476.893-5.293 3.506-9.517 7.841-12.676 4.418-3.24 9.934-4.857 16.553-4.857 4.644 0 8.619.433 11.922 1.303l-.948 2.488 1.602-2.606z"/><path d="m93.02 75.222c-1.944 11.53-7.486 20.81-16.625 27.839-7.52 5.765-15.327 8.646-23.421 8.646-6.265 0-10.772-2.486-13.524-7.462l-.124-.917-.268-1.092.031-1.447.12-.855.151-.78.141-.831c1.796-10.659 7.285-21.915 16.462-33.762 3.326-4.265 6.246-7.187 8.765-8.765 2.828-1.739 6.459-2.606 10.892-2.606 14.078-.001 19.876 7.344 17.4 22.032zm-10.995.71c1.851-10.978-1.889-17.176-11.222-18.598-10.358 12.161-16.668 24.957-18.934 38.382-1.252 7.422 1.677 11.136 8.787 11.136 2.883 0 5.275-1.027 7.17-3.079 7.736-8.295 12.468-17.574 14.199-27.841z"/><path d="m113.988 107.918c-6.121 2.92-12.175 4.38-18.157 4.38-2.955 0-4.928-.831-5.915-2.486-.977-1.736-1.135-4.541-.484-8.411.4-2.368 3.022-11.646 7.864-27.837 6.136-20.536 9.752-34.038 10.844-40.514.733-4.344.738-6.871.015-7.582-.556-.474-3.19-.91-7.91-1.305 7.197-2.603 13.576-3.908 19.137-3.908 2.39 0 3.389 1.186 2.989 3.554l-.079.474c-.254 1.502-1.794 6.871-4.619 16.11-4.531 14.769-8.128 26.693-10.786 35.776-2.153 7.345-3.762 14.175-4.828 20.493-.666 3.951-.549 6.791.355 8.53.989 1.66 2.926 2.486 5.812 2.486 1.267 0 2.742-.196 4.428-.589z"/><path d="m164.632 106.021-21.651 8.174-1.341-1.423 8.204-27.36-.488-.24c-4.584 9.239-9.103 15.993-13.555 20.258-4.45 4.265-9.314 6.397-14.594 6.397-2.884 0-4.771-.711-5.657-2.131-.886-1.423-1.025-3.949-.412-7.582.201-1.183.429-2.33.685-3.435.273-1.188.4-1.738.386-1.659.374-2.211 5.161-14.532 14.366-36.959l-8.008-2.606 21.874-2.608c-9.522 18.481-15.078 32.419-16.663 41.816-.759 4.502.199 6.753 2.874 6.753 3.52 0 7.697-3.908 12.537-11.727 4.85-7.896 10.063-19.389 15.636-34.474 4.157-2.131 7.611-3.197 10.355-3.197.424 0 .436 1.186.036 3.554-.932 5.527-2.979 10.779-6.143 15.755l-1.061 3.789c-3.011 10.743-4.945 18.68-5.812 23.815-.33 1.973-.543 3.434-.632 4.382z"/><path d="m204.517 47.882v2.565c0 .963.4 1.506 1.202 1.628.17.024.254.096.254.218 0 .153-.063.227-.187.227-.059 0-.136-.009-.229-.026-.541-.091-1.102-.136-1.676-.136-.301 0-.577.012-.821.036l-.506.055c-.091.012-.186.019-.285.019-.151 0-.227-.081-.227-.239 0-.11.067-.182.203-.218.429-.117.644-.57.644-1.363l-.01-.383v-3.269c0-.438-.053-.728-.153-.869-.098-.144-.311-.235-.644-.264-.125-.012-.187-.076-.187-.191 0-.134.074-.213.217-.239.745-.127 1.38-.359 1.906-.702l.319-.211c.043-.031.084-.045.122-.045.082 0 .123.067.123.201 0 .043-.003.132-.008.263l-.026.512-.031.567.007.098c.021.086.062.134.122.139.053.005.173-.139.359-.438.143-.232.371-.479.675-.74.309-.268.523-.402.635-.402.185 0 .458.158.822.474.369.316.555.555.562.713 0 .055-.089.268-.261.639-.223.47-.417.702-.587.702-.069 0-.136-.029-.194-.091l-.229-.227c-.276-.285-.594-.429-.954-.429-.638.001-.957.475-.957 1.426z"/><path d="m212.094 48.119c.063-.28.091-.522.091-.723 0-.613-.134-1.116-.397-1.507-.264-.39-.599-.584-1.01-.584-.527 0-.791.244-.791.73 0 .091.005.182.017.266l.023.175c0 .412-.419.62-1.252.62-.218 0-.321-.108-.311-.321 0-.041.014-.108.043-.199.015-.067.032-.148.048-.239.069-.388.234-.687.495-.896.578-.462 1.272-.694 2.086-.694.939 0 1.641.244 2.108.733.359.371.536 1.015.536 1.935 0 .465-.014 1.044-.048 1.746-.034.802-.047 1.339-.047 1.607 0 .627.22.941.665.941.159 0 .274-.022.35-.065.087-.043.149-.062.187-.062.077 0 .115.043.115.127 0 .151-.105.294-.316.429l-.319.182-.275.185c-.197.115-.413.172-.645.172-.477 0-.879-.347-1.205-1.042-1.01.725-1.849 1.087-2.515 1.087-.465 0-.824-.149-1.085-.446-.261-.299-.39-.713-.39-1.243 0-.962.373-1.664 1.123-2.1.464-.263 1.369-.534 2.719-.814zm-.162.522c-.465-.038-.91.148-1.334.555s-.634.857-.634 1.344c0 .802.287 1.205.862 1.205.36 0 .67-.093.937-.283.146-.096.246-.263.301-.503.055-.237.081-.63.081-1.178l.007-.704v-.192l-.048-.201c-.028-.024-.084-.038-.172-.043z"/><path d="m217.512 46.704 1.114 2.814c.141.352.256.531.342.536.139.014.465-.553.968-1.698.505-1.152.756-1.894.756-2.229 0-.522-.277-.805-.838-.848-.134-.007-.201-.077-.201-.211 0-.129.074-.192.225-.192l.433.029.496.017.675.045.35-.036c.124-.026.213-.036.263-.036.096 0 .144.06.144.182 0 .134-.069.225-.21.273-.207.067-.384.273-.529.613l-.374.841-.726 1.662c-1.204 2.771-1.911 4.155-2.117 4.155-.107 0-.206-.105-.292-.318l-.081-.218-2.035-5.025-.147-.33-.325-.766c-.151-.347-.309-.556-.465-.622-.213-.091-.319-.177-.325-.263-.012-.122.05-.189.179-.201l.071.009c.493.072.896.111 1.198.111.211 0 .572-.024 1.083-.065.311-.031.531-.046.668-.046.218 0 .35.012.401.036.052.017.081.074.081.165 0 .115-.077.187-.23.218-.52.098-.781.295-.781.594-.001.157.076.425.229.804z"/><path d="m225.716 44.74c.843 0 1.566.371 2.174 1.114.51.627.766 1.255.766 1.882 0 .237-.149.354-.44.354l-.374-.017h-.186l-.499.009-1.537.026-.807.01-.277-.01c-.155 0-.257.022-.299.065-.063.06-.091.175-.091.338 0 .805.235 1.516.699 2.136.474.618 1.016.924 1.629.924.689 0 1.24-.222 1.652-.666l.261-.285c.046-.048.089-.072.139-.074.119 0 .18.064.18.194 0 .175-.211.472-.627.884-.738.733-1.531 1.097-2.376 1.097-.941 0-1.706-.362-2.299-1.087-.589-.723-.886-1.657-.886-2.802 0-1.109.316-2.069.943-2.878.637-.809 1.388-1.214 2.255-1.214zm-.227.457c-.369 0-.692.201-.97.611-.276.409-.415.889-.415 1.444 0 .177.038.282.113.318.081.036.297.055.644.055.179 0 .369-.005.57-.019.489-.024.771-.036.845-.036.479 0 .719-.165.719-.493 0-.493-.153-.927-.464-1.305-.305-.383-.652-.575-1.042-.575z"/><path d="m232.149 41.907v8.075l.007.302c0 .604.076 1.023.227 1.26.153.232.45.391.896.474.143.026.222.05.244.074.029.027.043.084.043.175 0 .144-.058.218-.163.218-.063 0-.156-.007-.287-.027-.433-.067-.968-.1-1.605-.1-.704 0-1.202.029-1.489.091-.086.019-.149.029-.187.029-.113 0-.17-.077-.17-.23 0-.079.067-.148.203-.211.413-.186.618-.587.618-1.197l.017-.527.008-.249v-7.371c0-.786-.057-1.322-.177-1.607-.115-.285-.331-.429-.645-.429-.155 0-.237-.079-.237-.239 0-.091.031-.151.091-.182.06-.036.223-.083.489-.146.69-.165 1.243-.385 1.662-.666l.275-.184c.051-.029.098-.048.147-.052.081-.008.122.052.122.182 0 .067-.005.22-.017.455-.048.822-.072 1.517-.072 2.082z"/><path d="m204.517 47.882v2.565c0 .963.4 1.506 1.202 1.628.17.024.254.096.254.218 0 .153-.063.227-.187.227-.059 0-.136-.009-.229-.026-.541-.091-1.102-.136-1.676-.136-.301 0-.577.012-.821.036l-.506.055c-.091.012-.186.019-.285.019-.151 0-.227-.081-.227-.239 0-.11.067-.182.203-.218.429-.117.644-.57.644-1.363l-.01-.383v-3.269c0-.438-.053-.728-.153-.869-.098-.144-.311-.235-.644-.264-.125-.012-.187-.076-.187-.191 0-.134.074-.213.217-.239.745-.127 1.38-.359 1.906-.702l.319-.211c.043-.031.084-.045.122-.045.082 0 .123.067.123.201 0 .043-.003.132-.008.263l-.026.512-.031.567.007.098c.021.086.062.134.122.139.053.005.173-.139.359-.438.143-.232.371-.479.675-.74.309-.268.523-.402.635-.402.185 0 .458.158.822.474.369.316.555.555.562.713 0 .055-.089.268-.261.639-.223.47-.417.702-.587.702-.069 0-.136-.029-.194-.091l-.229-.227c-.276-.285-.594-.429-.954-.429-.638.001-.957.475-.957 1.426z"/><path d="m212.094 48.119c.063-.28.091-.522.091-.723 0-.613-.134-1.116-.397-1.507-.264-.39-.599-.584-1.01-.584-.527 0-.791.244-.791.73 0 .091.005.182.017.266l.023.175c0 .412-.419.62-1.252.62-.218 0-.321-.108-.311-.321 0-.041.014-.108.043-.199.015-.067.032-.148.048-.239.069-.388.234-.687.495-.896.578-.462 1.272-.694 2.086-.694.939 0 1.641.244 2.108.733.359.371.536 1.015.536 1.935 0 .465-.014 1.044-.048 1.746-.034.802-.047 1.339-.047 1.607 0 .627.22.941.665.941.159 0 .274-.022.35-.065.087-.043.149-.062.187-.062.077 0 .115.043.115.127 0 .151-.105.294-.316.429l-.319.182-.275.185c-.197.115-.413.172-.645.172-.477 0-.879-.347-1.205-1.042-1.01.725-1.849 1.087-2.515 1.087-.465 0-.824-.149-1.085-.446-.261-.299-.39-.713-.39-1.243 0-.962.373-1.664 1.123-2.1.464-.263 1.369-.534 2.719-.814zm-.162.522c-.465-.038-.91.148-1.334.555s-.634.857-.634 1.344c0 .802.287 1.205.862 1.205.36 0 .67-.093.937-.283.146-.096.246-.263.301-.503.055-.237.081-.63.081-1.178l.007-.704v-.192l-.048-.201c-.028-.024-.084-.038-.172-.043z"/><path d="m217.512 46.704 1.114 2.814c.141.352.256.531.342.536.139.014.465-.553.968-1.698.505-1.152.756-1.894.756-2.229 0-.522-.277-.805-.838-.848-.134-.007-.201-.077-.201-.211 0-.129.074-.192.225-.192l.433.029.496.017.675.045.35-.036c.124-.026.213-.036.263-.036.096 0 .144.06.144.182 0 .134-.069.225-.21.273-.207.067-.384.273-.529.613l-.374.841-.726 1.662c-1.204 2.771-1.911 4.155-2.117 4.155-.107 0-.206-.105-.292-.318l-.081-.218-2.035-5.025-.147-.33-.325-.766c-.151-.347-.309-.556-.465-.622-.213-.091-.319-.177-.325-.263-.012-.122.05-.189.179-.201l.071.009c.493.072.896.111 1.198.111.211 0 .572-.024 1.083-.065.311-.031.531-.046.668-.046.218 0 .35.012.401.036.052.017.081.074.081.165 0 .115-.077.187-.23.218-.52.098-.781.295-.781.594-.001.157.076.425.229.804z"/><path d="m225.716 44.74c.843 0 1.566.371 2.174 1.114.51.627.766 1.255.766 1.882 0 .237-.149.354-.44.354l-.374-.017h-.186l-.499.009-1.537.026-.807.01-.277-.01c-.155 0-.257.022-.299.065-.063.06-.091.175-.091.338 0 .805.235 1.516.699 2.136.474.618 1.016.924 1.629.924.689 0 1.24-.222 1.652-.666l.261-.285c.046-.048.089-.072.139-.074.119 0 .18.064.18.194 0 .175-.211.472-.627.884-.738.733-1.531 1.097-2.376 1.097-.941 0-1.706-.362-2.299-1.087-.589-.723-.886-1.657-.886-2.802 0-1.109.316-2.069.943-2.878.637-.809 1.388-1.214 2.255-1.214zm-.227.457c-.369 0-.692.201-.97.611-.276.409-.415.889-.415 1.444 0 .177.038.282.113.318.081.036.297.055.644.055.179 0 .369-.005.57-.019.489-.024.771-.036.845-.036.479 0 .719-.165.719-.493 0-.493-.153-.927-.464-1.305-.305-.383-.652-.575-1.042-.575z"/><path d="m232.149 41.907v8.075l.007.302c0 .604.076 1.023.227 1.26.153.232.45.391.896.474.143.026.222.05.244.074.029.027.043.084.043.175 0 .144-.058.218-.163.218-.063 0-.156-.007-.287-.027-.433-.067-.968-.1-1.605-.1-.704 0-1.202.029-1.489.091-.086.019-.149.029-.187.029-.113 0-.17-.077-.17-.23 0-.079.067-.148.203-.211.413-.186.618-.587.618-1.197l.017-.527.008-.249v-7.371c0-.786-.057-1.322-.177-1.607-.115-.285-.331-.429-.645-.429-.155 0-.237-.079-.237-.239 0-.091.031-.151.091-.182.06-.036.223-.083.489-.146.69-.165 1.243-.385 1.662-.666l.275-.184c.051-.029.098-.048.147-.052.081-.008.122.052.122.182 0 .067-.005.22-.017.455-.048.822-.072 1.517-.072 2.082z"/><path d="m225.918 32.033-3.535 5.604-3.393 5.901-2.829-6.267-2.994-5.992 3.535-5.602 3.394-5.901 2.828 6.268z"/></g></svg>