<svg width="80" height="81" viewBox="0 0 80 81" fill="none" xmlns="http://www.w3.org/2000/svg">
<path d="M40.6961 34.724C33.1492 34.1642 26.4742 30.4755 21.9676 24.9442L21.5115 24.3843L21.148 25.0083C18.8105 29.0212 19.541 34.13 22.86 37.328C22.0051 37.1358 21.1956 36.823 20.449 36.4093L19.726 36.0087L19.7068 36.835C19.6143 40.807 22.0145 44.5506 25.7071 46.1859C25.0364 46.2104 24.3478 46.1612 23.6537 46.0288L22.826 45.871L23.084 46.6731C24.2356 50.2534 27.3357 52.9642 31.1325 53.5525C27.4036 56.0733 22.9026 57.1695 18.392 56.6368L18.0634 57.5542C22.3775 60.3205 27.5006 61.9366 33.0067 61.9366C51.0043 61.9366 61.2059 46.8313 60.7303 33.2032C62.5638 31.8452 64.1499 30.1714 65.4131 28.27L66.3659 26.8359L64.7932 27.5366C63.7302 28.0102 62.614 28.3851 61.4553 28.6536C62.7009 27.4933 63.6533 26.0221 64.1862 24.3592L64.5885 23.1034L63.4547 23.7767C61.7311 24.8003 59.823 25.5583 57.7991 25.9854C55.9737 24.1471 53.4358 23.0066 50.6433 23.0066C44.3618 23.0066 39.6898 28.6649 40.6961 34.724ZM0.5 40.8066C0.5 18.9928 18.1861 1.30664 40 1.30664C61.8139 1.30664 79.5 18.9928 79.5 40.8066C79.5 62.6205 61.8139 80.3066 40 80.3066C18.1861 80.3066 0.5 62.6205 0.5 40.8066Z" fill="#c52431" stroke="black"/>
</svg>
