<svg preserveAspectRatio="none" viewBox="0 0 1920 264" xmlns="http://www.w3.org/2000/svg">
<g filter="url(#filter0_di)">
<path d="M0 0.898438L80 44.7186C160 88.5387 320 176.179 480 185.947C640 195.35 800 127.794 960 112.914C1120 98.5808 1280 136.923 1440 166.411C1600 195.35 1760 215.435 1840 224.838L1920 234.606V263.819H1840C1760 263.819 1600 263.819 1440 263.819C1280 263.819 1120 263.819 960 263.819C800 263.819 640 263.819 480 263.819C320 263.819 160 263.819 80 263.819H0V0.898438Z" fill="#c52431"/>
</g>
<defs>
<filter id="filter0_di" x="-4" y="0.898438" width="1928" height="2921.1" filterUnits="userSpaceOnUse" color-interpolation-filters="sRGB">
<feFlood flood-opacity="0" result="BackgroundImageFix"/>
<feColorMatrix in="SourceAlpha" type="matrix" values="0 0 0 0 0 0 0 0 0 0 0 0 0 0 0 0 0 0 127 0"/>
<feOffset dy="4"/>
<feGaussianBlur stdDeviation="2"/>
<feColorMatrix type="matrix" values="0 0 0 0 0 0 0 0 0 0 0 0 0 0 0 0 0 0 0.25 0"/>
<feBlend mode="normal" in2="BackgroundImageFix" result="effect1_dropShadow"/>
<feBlend mode="normal" in="SourceGraphic" in2="effect1_dropShadow" result="shape"/>
<feColorMatrix in="SourceAlpha" type="matrix" values="0 0 0 0 0 0 0 0 0 0 0 0 0 0 0 0 0 0 127 0" result="hardAlpha"/>
<feOffset dy="4"/>
<feGaussianBlur stdDeviation="2"/>
<feComposite in2="hardAlpha" operator="arithmetic" k2="-1" k3="1"/>
<feColorMatrix type="matrix" values="0 0 0 0 0 0 0 0 0 0 0 0 0 0 0 0 0 0 0.25 0"/>
<feBlend mode="normal" in2="shape" result="effect2_innerShadow"/>
</filter>
</defs>
</svg>
