<svg width="81" height="81" fill="none" xmlns="http://www.w3.org/2000/svg">
<path d="M40.1033 21.0733C29.5 21.0733 20.88 29.6933 20.8767 40.2933C20.8733 44.62 22.1433 47.86 24.2733 51.25L22.3333 58.3433L29.6067 56.4333C32.8667 58.3667 35.9767 59.5267 40.09 59.53C50.6833 59.53 59.3133 50.9067 59.3167 40.31C59.32 29.6867 50.7333 21.0767 40.1033 21.0733ZM51.41 48.5533C50.93 49.9033 48.62 51.1333 47.51 51.3C46.5133 51.45 45.2533 51.51 43.87 51.07C43.03 50.8033 41.9533 50.4467 40.5767 49.8533C34.78 47.35 30.9967 41.5133 30.7067 41.13C30.4167 40.7433 28.3467 37.9967 28.3467 35.1533C28.3467 32.31 29.84 30.91 30.37 30.3333C30.9 29.7567 31.5233 29.61 31.91 29.61L33.0167 29.63C33.37 29.6467 33.8467 29.4967 34.3167 30.6233C34.7967 31.78 35.9533 34.6233 36.0967 34.9133C36.24 35.2033 36.3367 35.54 36.1433 35.9267C35.95 36.3133 35.8533 36.5533 35.5667 36.89L34.7 37.9033C34.41 38.19 34.11 38.5033 34.4467 39.0833C34.7833 39.6633 35.9433 41.5533 37.66 43.0867C39.8667 45.0567 41.73 45.6667 42.3067 45.9533C42.8833 46.24 43.22 46.1933 43.56 45.81C43.8967 45.4233 45.0033 44.1233 45.39 43.5433C45.7767 42.9667 46.16 43.06 46.69 43.2533C47.22 43.4467 50.06 44.8433 50.6367 45.1333C51.2133 45.4233 51.6 45.5667 51.7433 45.8067C51.8933 46.0467 51.8933 47.2033 51.41 48.5533ZM40 0.5C17.91 0.5 0 18.41 0 40.5C0 62.59 17.91 80.5 40 80.5C62.09 80.5 80 62.59 80 40.5C80 18.41 62.09 0.5 40 0.5ZM40.0967 63.4333C36.2267 63.4333 32.4133 62.46 29.0367 60.62L16.78 63.8333L20.06 51.85C18.0367 48.3433 16.97 44.3633 16.9733 40.29C16.9767 27.54 27.35 17.1667 40.0967 17.1667C46.2833 17.17 52.09 19.5767 56.4533 23.9467C60.82 28.3167 63.2233 34.1267 63.22 40.3067C63.2167 53.0567 52.8433 63.4333 40.0967 63.4333Z" fill="#c52431" stroke="black"/>
</svg>
